<svg x="0" y="0" width="300" height="300" version="1.1" xmlns="http://www.w3.org/2000/svg" xmlns:xlink="http://www.w3.org/1999/xlink"><g data-paper-data="{&quot;description&quot;:&quot;Logo for Yearning\n=================\n\nThis logo was generated by MarkMaker and is composed of elements designed by others.\n\nThe font is Karma Light designed by Indian Type Foundry and released under the OFL license via Google Fonts: https://www.google.com/fonts/specimen/Karma. The font includes this copyright statement: Copyright (c) 2014 Indian Type Foundry (info@indiantypefoundry.com)\n\nThe symbol is 'leaf' designed by Anna Moreno and released into the public domain at the Noun Project: https://thenounproject.com/term/leaf/21490.\n\nMarkMaker uses semantic data from the Princeton University WordNet database http://wordnet.princeton.edu and font descriptions from Google Fonts https://www.google.com/fonts.\n\nThis design is inspired by designs that past users of MarkMaker have liked. As a result, it may be visually similar to past or future designs generated by the system. There is no guarantee that it is unique, original, or suitable in any way for use as a logo.\n\n&quot;}" fill="none" stroke="none" stroke-width="1" stroke-linecap="butt" stroke-linejoin="miter" stroke-miterlimit="none" stroke-dasharray="" stroke-dashoffset="0" font-family="none" font-weight="none" font-size="none" text-anchor="start" mix-blend-mode="normal"><g data-paper-data="{&quot;elementType&quot;:&quot;logo&quot;}" stroke-miterlimit="10" font-family="sans-serif" font-weight="normal" font-size="12"><g data-paper-data="{&quot;elementType&quot;:&quot;text&quot;}"><g data-paper-data="{&quot;baseline&quot;:67.7,&quot;elementType&quot;:&quot;row&quot;}"><g data-paper-data="{&quot;baselineProportion&quot;:0.7513873473917868,&quot;fontSize&quot;:100,&quot;baseline&quot;:67.7,&quot;elementType&quot;:&quot;word&quot;}"><path d="M83.45736,230.21l6.53598,0c0,0 0,0.10304 0,0.30913c0,0.88324 -0.41218,1.36902 -1.23654,1.45735l-0.88324,0.13249l-0.04416,0l-8.92073,15.98666l0,10.02478l3.26799,0.26497c0.11777,1.14821 -0.22081,1.72232 -1.01573,1.72232l-8.34663,0l0,-0.3533c0,-0.64771 0.19137,-1.05989 0.57411,-1.23654c0.17665,-0.08832 0.39746,-0.14721 0.66243,-0.17665l2.2081,-0.13249l0,-10.11311l-9.00906,-15.89834l-2.38475,-0.26497c-0.11777,-1.14821 0.22081,-1.72232 1.01573,-1.72232l7.64003,0l0,0.30913c0,0.64771 -0.19137,1.07461 -0.57411,1.2807c-0.17665,0.08832 -0.39746,0.14721 -0.66243,0.17665l-2.11978,0.13249l7.86084,13.99937l7.46339,-13.91104l-3.04718,-0.26497c-0.11777,-1.14821 0.22081,-1.72232 1.01573,-1.72232z" data-paper-data="{&quot;elementType&quot;:&quot;letter&quot;,&quot;baseline&quot;:67.7,&quot;baselineProportion&quot;:1,&quot;fontSize&quot;:100}" fill="#498484"></path><path d="M108.80637,248.27227l-13.99937,0c-0.05888,0.70659 -0.08832,1.23654 -0.08832,1.58983c0,2.53196 0.55939,4.62229 1.67816,6.27101c1.11877,1.64872 2.82637,2.47307 5.1228,2.47307c2.29643,0 4.4162,-0.7802 6.35933,-2.34059c0.29441,0.20609 0.44162,0.5005 0.44162,0.88324c0,0.76548 -0.79492,1.56039 -2.38475,2.38475c-1.58983,0.82436 -3.32687,1.23654 -5.21112,1.23654c-2.59084,0 -4.6959,-0.8906 -6.31517,-2.6718c-1.61927,-1.7812 -2.42891,-4.49717 -2.42891,-8.1479c0,-3.65073 0.97156,-6.5507 2.91469,-8.69992c1.94313,-2.14922 4.269,-3.22383 6.9776,-3.22383c1.26598,0 2.37003,0.25025 3.31215,0.75075c0.94212,0.5005 1.66344,1.16293 2.16394,1.98729c0.97156,1.64872 1.45735,3.47408 1.45735,5.47609l0,2.03145 M106.06832,246.54995c0.05888,-1.91369 -0.32385,-3.50352 -1.14821,-4.7695c-0.82436,-1.26598 -2.00201,-1.89897 -3.53296,-1.89897c-1.53095,0 -2.86317,0.61091 -3.99666,1.83272c-1.13349,1.22182 -1.90633,2.83373 -2.31851,4.83574l10.99635,0z" data-paper-data="{&quot;elementType&quot;:&quot;letter&quot;,&quot;baseline&quot;:50,&quot;baselineProportion&quot;:0.970873786407767,&quot;fontSize&quot;:100}" fill="#498484"></path><path d="M128.81178,260.81429c-1.73704,0 -2.70861,-0.98629 -2.91469,-2.95886c-0.76548,0.79492 -1.75176,1.47943 -2.95886,2.05354c-1.2071,0.57411 -2.68652,0.86116 -4.43829,0.86116c-1.75176,0 -3.20911,-0.51522 -4.37204,-1.54567c-1.16293,-1.03045 -1.7444,-2.47307 -1.7444,-4.32788c0,-1.56039 0.54467,-2.91469 1.634,-4.06291c1.29542,-1.41319 3.54768,-2.11978 6.75679,-2.11978c1.82536,0 3.51824,0.23553 5.07864,0.70659l0,-3.93042c0,-1.56039 -0.44898,-2.87053 -1.34694,-3.93042c-0.89796,-1.05989 -2.18602,-1.58983 -3.86418,-1.58983c-2.94414,0 -4.59285,1.45735 -4.94615,4.37204c-0.58883,0.05888 -1.07461,-0.0736 -1.45735,-0.39746c-0.38274,-0.32385 -0.57411,-0.86852 -0.57411,-1.634c0,-1.2071 0.62563,-2.22282 1.87689,-3.04718c1.25126,-0.82436 2.86317,-1.23654 4.83574,-1.23654c1.53095,0 3.10606,0.36802 4.72534,1.10405c0.94212,0.44162 1.7076,1.19974 2.29643,2.27435c0.58883,1.07461 0.88324,2.39211 0.88324,3.9525l0,13.20445l2.95886,0.3533c0,1.26598 -0.80964,1.89897 -2.42891,1.89897 M125.85292,251.93772c-1.41319,-0.88324 -3.10606,-1.32486 -5.07864,-1.32486c-1.97257,0 -3.39312,0.36066 -4.26164,1.08197c-0.86852,0.72131 -1.30278,1.69288 -1.30278,2.91469c0,1.22182 0.3901,2.20074 1.17029,2.93678c0.7802,0.73603 1.86217,1.10405 3.24591,1.10405c2.38475,0 4.46037,-0.9274 6.22685,-2.78221l0,-3.93042z" data-paper-data="{&quot;elementType&quot;:&quot;letter&quot;,&quot;baseline&quot;:50,&quot;baselineProportion&quot;:0.9689922480620156,&quot;fontSize&quot;:100}" fill="#498484"></path><path d="M146.87405,238.02668c1.64872,0 2.47307,0.72131 2.47307,2.16394c0,1.53095 -0.17665,2.51724 -0.52994,2.95886c-0.3533,0.32385 -0.89796,0.45634 -1.634,0.39746c0,-2.09034 -0.55939,-3.13551 -1.67816,-3.13551c-1.38374,0 -3.19439,1.01573 -5.43193,3.04718l0,14.83845l3.8421,0.26497c0.08832,1.03045 -0.25025,1.54567 -1.01573,1.54567l-8.47911,0c0,0 0,-0.10304 0,-0.30913c0,-0.58883 0.19137,-0.95684 0.57411,-1.10405c0.20609,-0.08832 1.08933,-0.19137 2.64972,-0.30913l0,-17.66482l-2.47307,-0.26497c-0.58883,-0.05888 -0.88324,-0.57411 -0.88324,-1.54567l5.43193,-0.70659l0.26497,3.31215l0.13249,0c0.94212,-0.91268 2.06826,-1.72232 3.3784,-2.42891c1.31014,-0.70659 2.43627,-1.05989 3.3784,-1.05989z" data-paper-data="{&quot;elementType&quot;:&quot;letter&quot;,&quot;baseline&quot;:50,&quot;baselineProportion&quot;:1,&quot;fontSize&quot;:100}" fill="#498484"></path><path d="M174.07787,260.1077l-7.81668,0l0,-0.30913c0,-0.58883 0.19137,-0.95684 0.57411,-1.10405c0.20609,-0.11777 1.11877,-0.22081 2.73805,-0.30913l0,-11.57046c0,-4.38676 -1.7076,-6.58014 -5.1228,-6.58014c-1.23654,0 -2.37739,0.25025 -3.42256,0.75075c-1.04517,0.5005 -2.21546,1.31014 -3.51088,2.42891l0,14.88261l3.13551,0.26497c0.08832,1.03045 -0.25025,1.54567 -1.01573,1.54567l-7.86084,0l0,-0.30913c0,-0.58883 0.19137,-0.95684 0.57411,-1.10405c0.20609,-0.11777 1.11877,-0.22081 2.73805,-0.30913l0,-17.84147l-2.47307,-0.26497c-0.58883,-0.05888 -0.88324,-0.57411 -0.88324,-1.54567l5.07864,-0.70659l0.61827,3.53296l0.13249,0c2.47307,-2.35531 4.99031,-3.53296 7.55171,-3.53296c1.88425,0 3.50352,0.66979 4.85782,2.00937c1.3543,1.33958 2.03145,3.43728 2.03145,6.29309l0,11.96791l3.09134,0.26497c0.11777,1.03045 -0.22081,1.54567 -1.01573,1.54567z" data-paper-data="{&quot;elementType&quot;:&quot;letter&quot;,&quot;baseline&quot;:50,&quot;baselineProportion&quot;:1,&quot;fontSize&quot;:100}" fill="#498484"></path><path d="M186.57573,260.1077l-8.03749,0l0,-0.30913c0,-0.58883 0.19137,-0.95684 0.57411,-1.10405c0.20609,-0.08832 1.08933,-0.19137 2.64972,-0.30913l0,-17.84147l-2.47307,-0.22081c-0.58883,-0.05888 -0.88324,-0.60355 -0.88324,-1.634l5.78523,-0.66243l0,20.27038l3.40048,0.26497c0.08832,1.03045 -0.25025,1.54567 -1.01573,1.54567 M183.99225,233.6988c0,0 -0.08464,0.08832 -0.25393,0.26497c-0.16929,0.17665 -0.54835,0.26497 -1.13717,0.26497c-0.58883,0 -1.05253,-0.17665 -1.3911,-0.52994c-0.33858,-0.3533 -0.50786,-0.80964 -0.50786,-1.36902c0,-0.55939 0.16929,-1.01573 0.50786,-1.36902c0.33858,-0.3533 0.80228,-0.52994 1.3911,-0.52994c0.58883,0 1.05253,0.17665 1.3911,0.52994c0.33858,0.3533 0.50786,0.80964 0.50786,1.36902c0,0.55939 -0.16929,1.01573 -0.50786,1.36902z" data-paper-data="{&quot;elementType&quot;:&quot;letter&quot;,&quot;baseline&quot;:67.2,&quot;baselineProportion&quot;:1,&quot;fontSize&quot;:100}" fill="#5adac7"></path><path d="M213.2496,260.1077l-7.81668,0l0,-0.30913c0,-0.58883 0.19137,-0.95684 0.57411,-1.10405c0.20609,-0.11777 1.11877,-0.22081 2.73805,-0.30913l0,-11.57046c0,-4.38676 -1.7076,-6.58014 -5.1228,-6.58014c-1.23654,0 -2.37739,0.25025 -3.42256,0.75075c-1.04517,0.5005 -2.21546,1.31014 -3.51088,2.42891l0,14.88261l3.13551,0.26497c0.08832,1.03045 -0.25025,1.54567 -1.01573,1.54567l-7.86084,0l0,-0.30913c0,-0.58883 0.19137,-0.95684 0.57411,-1.10405c0.20609,-0.11777 1.11877,-0.22081 2.73805,-0.30913l0,-17.84147l-2.47307,-0.26497c-0.58883,-0.05888 -0.88324,-0.57411 -0.88324,-1.54567l5.07864,-0.70659l0.61827,3.53296l0.13249,0c2.47307,-2.35531 4.99031,-3.53296 7.55171,-3.53296c1.88425,0 3.50352,0.66979 4.85782,2.00937c1.3543,1.33958 2.03145,3.43728 2.03145,6.29309l0,11.96791l3.09134,0.26497c0.11777,1.03045 -0.22081,1.54567 -1.01573,1.54567z" data-paper-data="{&quot;elementType&quot;:&quot;letter&quot;,&quot;baseline&quot;:50,&quot;baselineProportion&quot;:1,&quot;fontSize&quot;:100}" fill="#498484"></path><path d="M224.55509,253.26259c-0.52994,0 -1.17765,-0.05888 -1.94313,-0.17665c-1.00101,1.05989 -1.45735,1.78856 -1.36902,2.18602c0.08832,0.39746 1.31014,0.62563 3.66545,0.68451c3.76849,0.05888 6.41086,0.47842 7.92709,1.25862c1.51623,0.7802 2.27435,2.32587 2.27435,4.63701c0,2.31115 -0.92004,4.24692 -2.76013,5.80731c-1.84009,1.56039 -4.22484,2.34059 -7.15425,2.34059c-2.92942,0 -5.1596,-0.55203 -6.69055,-1.65608c-1.53095,-1.10405 -2.29643,-2.5246 -2.29643,-4.26164c0,-2.41419 1.26598,-4.48981 3.79794,-6.22685c-0.8538,-0.32385 -1.2807,-0.94212 -1.2807,-1.85481c0,-0.91268 0.73603,-2.07562 2.2081,-3.4888c-2.2081,-1.08933 -3.4152,-2.89997 -3.62129,-5.43193c-0.20609,-2.53196 0.41218,-4.67382 1.85481,-6.42558c1.44263,-1.75176 3.4152,-2.62764 5.91771,-2.62764c1.73704,0 3.22383,0.4269 4.46037,1.2807l5.16696,-1.32486c0.26497,0.3533 0.41218,0.74339 0.44162,1.17029c0.02944,0.4269 -0.11777,0.78756 -0.44162,1.08197c-0.44162,0.23553 -1.75176,0.32385 -3.93042,0.26497c1.00101,1.26598 1.47943,2.95886 1.43527,5.07864c-0.04416,2.11978 -0.72131,3.93042 -2.03145,5.43193c-1.31014,1.50151 -3.18703,2.25226 -5.63066,2.25226 M218.46072,263.37569c0,1.38374 0.64771,2.45099 1.94313,3.20175c1.29542,0.75075 3.07662,1.12613 5.34361,1.12613c2.26698,0 4.07763,-0.54467 5.43193,-1.634c1.3543,-1.08933 2.03145,-2.38475 2.03145,-3.88626c0,-1.82536 -1.13349,-2.94414 -3.40048,-3.35632c-1.29542,-0.23553 -2.92942,-0.38274 -4.90199,-0.44162c-1.97257,-0.05888 -3.16495,-0.11777 -3.57713,-0.17665c-0.8538,0.61827 -1.54567,1.40583 -2.07562,2.36267c-0.52994,0.95684 -0.79492,1.89161 -0.79492,2.80429z M224.82006,239.77108c0,0 -0.3901,0.01104 -1.17029,0.03312c-0.7802,0.02208 -1.62664,0.59987 -2.53932,1.73336c-0.91268,1.13349 -1.36902,2.4878 -1.36902,4.06291c0,1.57511 0.44162,2.96622 1.32486,4.17331c0.88324,1.2071 2.10506,1.79592 3.66545,1.76648c1.56039,-0.02944 2.78957,-0.64035 3.68753,-1.83272c0.89796,-1.19238 1.34694,-2.57612 1.34694,-4.15123c0,-1.57511 -0.43426,-2.94414 -1.30278,-4.10707c-0.86852,-1.16293 -2.08298,-1.72232 -3.64337,-1.67816" data-paper-data="{&quot;elementType&quot;:&quot;letter&quot;,&quot;baseline&quot;:50.1,&quot;baselineProportion&quot;:0.6910344827586207,&quot;fontSize&quot;:100}" fill="#498484"></path></g></g></g></g><g data-paper-data="{&quot;elementType&quot;:&quot;emblem&quot;}" fill="#498484" stroke="none" stroke-miterlimit="4" font-family="&quot;Helvetica Neue&quot;, Helvetica, Arial, sans-serif" font-weight="bold" font-size="24"><g><path d="M125.81885,35.16953c-2.08452,-1.14939 -5.14229,-3.76956 -6.90179,-5.16953l12.73589,40.51917c2.2316,-1.38907 5.11869,-3.63156 6.052,-6.13008c1.67052,-4.49224 0.12166,-15.04194 0.11258,-15.10912l5.4764,3.65517c0,0 1.39997,7.39568 -0.77352,13.24976c-1.73952,4.65022 -6.68208,7.92226 -9.28409,9.37851l6.62579,21.08304c3.44091,-1.82304 8.74117,-5.38924 11.70634,-11.15798c4.71195,-9.14609 3.73325,-24.346 3.71146,-24.46766l4.82272,4.4414c0.08897,0.56108 1.52344,11.72269 -3.96567,22.37769c-3.85672,7.49736 -10.69314,11.79895 -14.7042,13.79449l5.13685,16.3493c4.80093,-1.68868 12.22929,-5.01337 18.82602,-11.00545c10.27006,-9.31133 11.26148,-22.51569 11.25603,-22.82982l4.12546,4.95164c0.01453,0.42852 0.24331,10.64593 -11.92242,21.68225c-7.32123,6.64394 -15.47046,10.28822 -20.73986,12.11853l4.16177,13.24431c6.2935,-1.10218 17.3625,-3.94388 25.54623,-10.95643c11.759,-10.08122 15.08188,-19.70486 15.08733,-19.71213l3.3828,5.03879c-0.17432,0.71905 -2.0246,7.34121 -15.12183,18.57363c-6.88908,5.90129 -15.3597,9.11704 -22.06538,10.85656c-1.94107,0.50297 -3.71146,0.87702 -5.2694,1.15665l4.34698,13.8526c7.82965,-1.78128 20.4802,-5.61803 28.52411,-12.96105c11.966,-10.92193 15.45775,-20.1806 15.46138,-20.20239l2.61473,5.98663c-0.14526,0.79713 -1.33278,5.89221 -14.60433,18.01255c-7.88594,7.19776 -19.33807,11.26693 -27.66706,13.42589c-0.97871,0.25603 -1.89386,0.47392 -2.77088,0.67729l6.11918,19.46881c7.02526,-1.7722 17.97261,-5.47458 25.67515,-12.58518c12.12216,-11.19248 12.79581,-13.66013 16.2458,-18.79879c0.78442,2.7037 -0.30687,8.03302 -0.30687,8.03302c-1.24563,1.99918 -2.08089,4.70832 -13.22434,15.44322c-7.84599,7.55184 -19.37984,10.71856 -26.89536,12.66508l5.73787,18.25768c16.53088,-7.36844 53.83611,-26.79186 43.13571,-69.86765c-10.73853,-36.74053 -57.55301,-80.18492 -90.40958,-97.34042z"></path><path d="M156.64356,186.75824c-7.3521,2.42407 -19.05481,6.21542 -29.98945,4.06009c-15.17812,-3.00149 -17.34253,-4.83179 -19.47063,-5.84137c0,0 -3.80406,-3.89485 -4.60482,-6.58402c5.6834,2.45312 7.58452,4.16177 23.83213,7.018c10.61143,1.87026 22.14527,-1.14213 28.94356,-3.47722l-5.26032,-19.73755c-1.03318,0.37587 -2.14807,0.77171 -3.36101,1.16755c-8.17283,2.68554 -20.00083,5.45279 -30.53055,3.66062c-17.72021,-3.0142 -21.47162,-6.65666 -22.02725,-7.25223l-1.035,-6.44784c0.01271,0.01453 7.96039,5.91945 23.92474,8.63586c11.069,1.88478 24.24795,-2.01915 31.69447,-4.77187l-3.7514,-14.06686c-1.62512,0.68818 -3.5898,1.45444 -5.82684,2.18802c-6.58039,2.16078 -15.44504,4.04193 -24.42771,2.7963c-17.09377,-2.36052 -22.23788,-6.92721 -22.76627,-7.44289l0.12166,-6.06653c0.00545,0.00182 8.00578,6.30076 23.34732,8.41796c11.18703,1.55068 22.54838,-2.47128 28.20817,-4.93529l-3.53896,-13.277c-5.31842,1.37273 -14.58254,2.97788 -24.91252,1.25471c-16.20404,-2.71096 -21.5388,-11.42671 -21.7567,-11.79895l0.79713,-6.39518c0.16705,0.26692 8.13833,10.83477 21.80935,13.12265c9.38214,1.5652 17.90724,0.07445 22.73722,-1.1621l-4.38148,-16.43101c-4.12182,0.58105 -12.97739,1.07494 -20.91054,-3.51535c-10.37901,-5.99753 -15.20717,-16.16227 -15.43596,-16.67977l1.65236,-6.34253c0.05084,0.11076 7.44834,13.42771 16.35293,18.57363c6.20453,3.58617 13.33873,3.37554 17.00298,2.94338l-5.67976,-21.31183c-2.0936,0.22697 -9.46749,0.72994 -14.14494,-2.76544c-4.99703,-3.74777 -7.81694,-10.72764 -7.81694,-10.72764l2.63107,-6.03929c0.02905,0.06537 4.42688,9.77617 8.25999,12.65237c2.52757,1.88841 7.15781,2.00462 9.72533,1.83394l-10.4698,-39.24812c-4.05646,5.85408 -12.37818,18.49555 -15.01651,24.22616c-13.04821,28.34072 -25.15765,73.99492 -14.78228,108.34587c13.69644,45.32373 58.86582,45.05317 76.13209,41.22732z"></path></g></g></g></svg>